<svg width="17" height="17" viewBox="0 0 17 17" fill="none" xmlns="http://www.w3.org/2000/svg">
<path d="M12.9592 3.26762H11.6118V2.59389C11.6118 2.41521 11.5408 2.24384 11.4144 2.1175C11.2881 1.99115 11.1167 1.92017 10.938 1.92017C10.7593 1.92017 10.588 1.99115 10.4616 2.1175C10.3353 2.24384 10.2643 2.41521 10.2643 2.59389V3.26762H6.22194V2.59389C6.22194 2.41521 6.15096 2.24384 6.02461 2.1175C5.89827 1.99115 5.7269 1.92017 5.54822 1.92017C5.36953 1.92017 5.19817 1.99115 5.07182 2.1175C4.94547 2.24384 4.87449 2.41521 4.87449 2.59389V3.26762H3.52704C2.99099 3.26762 2.47689 3.48056 2.09785 3.85961C1.7188 4.23865 1.50586 4.75275 1.50586 5.2888V13.3735C1.50586 13.9096 1.7188 14.4237 2.09785 14.8027C2.47689 15.1818 2.99099 15.3947 3.52704 15.3947H12.9592C13.4953 15.3947 14.0094 15.1818 14.3884 14.8027C14.7674 14.4237 14.9804 13.9096 14.9804 13.3735V5.2888C14.9804 4.75275 14.7674 4.23865 14.3884 3.85961C14.0094 3.48056 13.4953 3.26762 12.9592 3.26762ZM13.6329 13.3735C13.6329 13.5522 13.562 13.7236 13.4356 13.8499C13.3093 13.9763 13.1379 14.0472 12.9592 14.0472H3.52704C3.34836 14.0472 3.17699 13.9763 3.05064 13.8499C2.92429 13.7236 2.85331 13.5522 2.85331 13.3735V8.65743H13.6329V13.3735ZM13.6329 7.30998H2.85331V5.2888C2.85331 5.11012 2.92429 4.93875 3.05064 4.8124C3.17699 4.68605 3.34836 4.61507 3.52704 4.61507H4.87449V5.2888C4.87449 5.46748 4.94547 5.63885 5.07182 5.76519C5.19817 5.89154 5.36953 5.96252 5.54822 5.96252C5.7269 5.96252 5.89827 5.89154 6.02461 5.76519C6.15096 5.63885 6.22194 5.46748 6.22194 5.2888V4.61507H10.2643V5.2888C10.2643 5.46748 10.3353 5.63885 10.4616 5.76519C10.588 5.89154 10.7593 5.96252 10.938 5.96252C11.1167 5.96252 11.2881 5.89154 11.4144 5.76519C11.5408 5.63885 11.6118 5.46748 11.6118 5.2888V4.61507H12.9592C13.1379 4.61507 13.3093 4.68605 13.4356 4.8124C13.562 4.93875 13.6329 5.11012 13.6329 5.2888V7.30998Z" fill="#282B30" fill-opacity="0.6"/>
</svg>
