<svg width="13" height="13" viewBox="0 0 13 13" fill="none" xmlns="http://www.w3.org/2000/svg">
<path d="M10.1195 2.78548H9.14056V2.29603C9.14056 2.16622 9.089 2.04173 8.99721 1.94994C8.90542 1.85815 8.78093 1.80658 8.65112 1.80658C8.52131 1.80658 8.39681 1.85815 8.30502 1.94994C8.21323 2.04173 8.16167 2.16622 8.16167 2.29603V2.78548H5.22497V2.29603C5.22497 2.16622 5.1734 2.04173 5.08162 1.94994C4.98983 1.85815 4.86533 1.80658 4.73552 1.80658C4.60571 1.80658 4.48122 1.85815 4.38943 1.94994C4.29764 2.04173 4.24607 2.16622 4.24607 2.29603V2.78548H3.26718C2.87775 2.78548 2.50427 2.94018 2.2289 3.21555C1.95353 3.49092 1.79883 3.8644 1.79883 4.25382V10.1272C1.79883 10.5166 1.95353 10.8901 2.2289 11.1655C2.50427 11.4409 2.87775 11.5956 3.26718 11.5956H10.1195C10.5089 11.5956 10.8824 11.4409 11.1577 11.1655C11.4331 10.8901 11.5878 10.5166 11.5878 10.1272V4.25382C11.5878 3.8644 11.4331 3.49092 11.1577 3.21555C10.8824 2.94018 10.5089 2.78548 10.1195 2.78548ZM10.6089 10.1272C10.6089 10.257 10.5573 10.3815 10.4656 10.4733C10.3738 10.5651 10.2493 10.6167 10.1195 10.6167H3.26718C3.13737 10.6167 3.01287 10.5651 2.92108 10.4733C2.82929 10.3815 2.77773 10.257 2.77773 10.1272V6.70107H10.6089V10.1272ZM10.6089 5.72217H2.77773V4.25382C2.77773 4.12402 2.82929 3.99952 2.92108 3.90773C3.01287 3.81594 3.13737 3.76438 3.26718 3.76438H4.24607V4.25382C4.24607 4.38364 4.29764 4.50813 4.38943 4.59992C4.48122 4.69171 4.60571 4.74327 4.73552 4.74327C4.86533 4.74327 4.98983 4.69171 5.08162 4.59992C5.1734 4.50813 5.22497 4.38364 5.22497 4.25382V3.76438H8.16167V4.25382C8.16167 4.38364 8.21323 4.50813 8.30502 4.59992C8.39681 4.69171 8.52131 4.74327 8.65112 4.74327C8.78093 4.74327 8.90542 4.69171 8.99721 4.59992C9.089 4.50813 9.14056 4.38364 9.14056 4.25382V3.76438H10.1195C10.2493 3.76438 10.3738 3.81594 10.4656 3.90773C10.5573 3.99952 10.6089 4.12402 10.6089 4.25382V5.72217Z" fill="#FF7B01" fill-opacity="0.7"/>
</svg>
