<svg width="12" height="13" viewBox="0 0 12 13" fill="none" xmlns="http://www.w3.org/2000/svg">
<path d="M6.08199 1.80658C3.38317 1.80658 1.1875 4.00225 1.1875 6.70107C1.1875 9.39989 3.38317 11.5956 6.08199 11.5956C8.78081 11.5956 10.9765 9.39989 10.9765 6.70107C10.9765 4.00225 8.78081 1.80658 6.08199 1.80658ZM6.08199 10.6167C3.92303 10.6167 2.1664 8.86003 2.1664 6.70107C2.1664 4.54211 3.92303 2.78548 6.08199 2.78548C8.24095 2.78548 9.99758 4.54211 9.99758 6.70107C9.99758 8.86003 8.24095 10.6167 6.08199 10.6167Z" fill="#FFBD3F"/>
<path d="M6.5746 4.25381H5.5957V6.90369L7.20746 8.51545L7.89954 7.82337L6.5746 6.49843V4.25381Z" fill="#FFBD3F"/>
</svg>
