<svg width="17" height="17" viewBox="0 0 17 17" fill="none" xmlns="http://www.w3.org/2000/svg">
<path d="M8.44234 1.92017C4.72742 1.92017 1.70508 4.9425 1.70508 8.65743C1.70508 12.3724 4.72742 15.3947 8.44234 15.3947C12.1573 15.3947 15.1796 12.3724 15.1796 8.65743C15.1796 4.9425 12.1573 1.92017 8.44234 1.92017ZM8.44234 14.0472C5.47054 14.0472 3.05253 11.6292 3.05253 8.65743C3.05253 5.68562 5.47054 3.26762 8.44234 3.26762C11.4142 3.26762 13.8322 5.68562 13.8322 8.65743C13.8322 11.6292 11.4142 14.0472 8.44234 14.0472Z" fill="#282B30" fill-opacity="0.6"/>
<path d="M9.11698 5.28882H7.76953V8.93637L9.98811 11.155L10.9408 10.2023L9.11698 8.37853V5.28882Z" fill="#282B30" fill-opacity="0.6"/>
</svg>
