<svg width="23" height="17" viewBox="0 0 23 17" fill="none" xmlns="http://www.w3.org/2000/svg">
<path d="M21.465 0H0.795C0.355266 0 0 0.331581 0 0.742V15.582C0 15.9924 0.355266 16.324 0.795 16.324H21.465C21.9047 16.324 22.26 15.9924 22.26 15.582V0.742C22.26 0.331581 21.9047 0 21.465 0ZM20.4713 2.56917V14.6545H1.78875V2.56917L1.10306 2.07064L2.07942 0.899675L3.14273 1.67182H19.1197L20.1831 0.899675L21.1594 2.07064L20.4713 2.56917ZM19.1197 1.6695L11.13 7.46637L3.14025 1.6695L2.07694 0.897356L1.10058 2.06832L1.78627 2.56686L10.2729 8.72546C10.517 8.90242 10.8172 8.99849 11.1263 8.99849C11.4353 8.99849 11.7356 8.90242 11.9797 8.72546L20.4713 2.56917L21.1569 2.07064L20.1806 0.899675L19.1197 1.6695Z" fill="white"/>
</svg>
