<svg width="23" height="23" viewBox="0 0 23 23" fill="none" xmlns="http://www.w3.org/2000/svg">
<path d="M11.13 0C4.99292 0 0 4.99292 0 11.13V15.7412C0 16.8809 0.998361 17.808 2.226 17.808H3.339C3.63419 17.808 3.91728 17.6907 4.12601 17.482C4.33474 17.2733 4.452 16.9902 4.452 16.695V10.9708C4.452 10.6757 4.33474 10.3926 4.12601 10.1838C3.91728 9.9751 3.63419 9.85784 3.339 9.85784H2.3284C2.94722 5.55053 6.65351 2.226 11.13 2.226C15.6065 2.226 19.3128 5.55053 19.9316 9.85784H18.921C18.6258 9.85784 18.3427 9.9751 18.134 10.1838C17.9253 10.3926 17.808 10.6757 17.808 10.9708V17.808C17.808 19.0356 16.8096 20.034 15.582 20.034H13.356V18.921H8.904V22.26H15.582C18.0373 22.26 20.034 20.2633 20.034 17.808C21.2616 17.808 22.26 16.8809 22.26 15.7412V11.13C22.26 4.99292 17.2671 0 11.13 0Z" fill="white"/>
</svg>
