<svg width="17" height="23" viewBox="0 0 17 23" fill="none" xmlns="http://www.w3.org/2000/svg">
<path d="M14.5102 0H1.81378C1.33273 0 0.871393 0.167517 0.531244 0.4657C0.191094 0.763883 0 1.16831 0 1.59V20.67C0 21.0917 0.191094 21.4961 0.531244 21.7943C0.871393 22.0925 1.33273 22.26 1.81378 22.26H14.5102C14.9913 22.26 15.4526 22.0925 15.7928 21.7943C16.1329 21.4961 16.324 21.0917 16.324 20.67V1.59C16.324 1.16831 16.1329 0.763883 15.7928 0.4657C15.4526 0.167517 14.9913 0 14.5102 0ZM9.06889 20.67H7.25511V19.08H9.06889V20.67ZM1.81378 17.49V1.59H14.5102V17.49H1.81378Z" fill="white"/>
</svg>
