<svg width="10" height="10" viewBox="0 0 10 10" fill="none" xmlns="http://www.w3.org/2000/svg">
<path d="M9.94139 8.93333L5.67908 0.4C5.41269 -0.133333 4.6801 -0.133333 4.41371 0.4L0.0847933 8.93333C-0.181601 9.4 0.217991 10 0.75078 10H9.27541C9.8082 10 10.1412 9.4 9.94139 8.93333ZM5.01309 8.66667C4.4803 8.66667 4.01411 8.2 4.01411 7.66667C4.01411 7.13333 4.41371 6.66667 5.01309 6.66667C5.61248 6.66667 6.01207 7.13333 6.01207 7.66667C6.01207 8.26667 5.54588 8.66667 5.01309 8.66667ZM5.67908 6H4.34711L4.01411 3.66667C4.01411 3.46667 4.14731 3.33333 4.34711 3.33333H5.67908C5.87888 3.33333 6.01207 3.46667 6.01207 3.66667L5.67908 6Z" fill="#282B30" fill-opacity="0.59"/>
</svg>
