<svg width="15" height="15" viewBox="0 0 15 15" fill="none" xmlns="http://www.w3.org/2000/svg">
<path d="M7.5 2.75391C6.04541 2.75391 4.67725 3.3208 3.64746 4.35059C2.61768 5.37891 2.05078 6.74707 2.05078 8.20312C2.05078 9.75 2.70264 11.2134 3.84668 12.2461H11.1533C11.7193 11.7357 12.1717 11.1121 12.4811 10.4155C12.7905 9.71904 12.95 8.96526 12.9492 8.20312C12.9492 6.74854 12.3823 5.38037 11.3525 4.35059C10.3242 3.3208 8.95605 2.75391 7.5 2.75391ZM7.06055 3.39844C7.06055 3.33398 7.11328 3.28125 7.17773 3.28125H7.82227C7.88672 3.28125 7.93945 3.33398 7.93945 3.39844V4.57031C7.93945 4.63477 7.88672 4.6875 7.82227 4.6875H7.17773C7.11328 4.6875 7.06055 4.63477 7.06055 4.57031V3.39844ZM3.95508 8.52539C3.95508 8.58984 3.90234 8.64258 3.83789 8.64258H2.66602C2.60156 8.64258 2.54883 8.58984 2.54883 8.52539V7.88086C2.54883 7.81641 2.60156 7.76367 2.66602 7.76367H3.83789C3.90234 7.76367 3.95508 7.81641 3.95508 7.88086V8.52539ZM5.28369 5.53125L4.82812 5.98682C4.8061 6.00863 4.77636 6.02086 4.74536 6.02086C4.71437 6.02086 4.68462 6.00863 4.6626 5.98682L3.8335 5.15771C3.81169 5.13569 3.79945 5.10595 3.79945 5.07495C3.79945 5.04396 3.81169 5.01421 3.8335 4.99219L4.28906 4.53662C4.33447 4.49121 4.40918 4.49121 4.45459 4.53662L5.28369 5.36572C5.3291 5.41113 5.3291 5.48584 5.28369 5.53125ZM9.54785 6.75439L8.31006 7.99219C8.3833 8.26611 8.31299 8.56934 8.09766 8.78467C8.02153 8.86094 7.93111 8.92145 7.83158 8.96273C7.73204 9.00401 7.62534 9.02527 7.51758 9.02527C7.40982 9.02527 7.30312 9.00401 7.20358 8.96273C7.10404 8.92145 7.01363 8.86094 6.9375 8.78467C6.86123 8.70854 6.80072 8.61812 6.75944 8.51859C6.71815 8.41905 6.6969 8.31235 6.6969 8.20459C6.6969 8.09683 6.71815 7.99013 6.75944 7.89059C6.80072 7.79106 6.86123 7.70064 6.9375 7.62451C7.03921 7.52249 7.16605 7.44913 7.3052 7.41183C7.44435 7.37454 7.59088 7.37463 7.72998 7.41211L8.96777 6.17432C9.01318 6.12891 9.08789 6.12891 9.1333 6.17432L9.54785 6.58887C9.59326 6.63428 9.59326 6.70898 9.54785 6.75439ZM10.1777 5.98682L9.72217 5.53125C9.70036 5.50923 9.68812 5.47948 9.68812 5.44849C9.68812 5.41749 9.70036 5.38775 9.72217 5.36572L10.5513 4.53662C10.5967 4.49121 10.6714 4.49121 10.7168 4.53662L11.1724 4.99219C11.2178 5.0376 11.2178 5.1123 11.1724 5.15771L10.3433 5.98682C10.3212 6.00863 10.2915 6.02086 10.2605 6.02086C10.2295 6.02086 10.1998 6.00863 10.1777 5.98682ZM12.3926 7.88086V8.52539C12.3926 8.58984 12.3398 8.64258 12.2754 8.64258H11.1035C11.0391 8.64258 10.9863 8.58984 10.9863 8.52539V7.88086C10.9863 7.81641 11.0391 7.76367 11.1035 7.76367H12.2754C12.3398 7.76367 12.3926 7.81641 12.3926 7.88086Z" fill="white" fill-opacity="0.15"/>
<path d="M9.1317 6.17432C9.10967 6.15251 9.07993 6.14027 9.04893 6.14027C9.01794 6.14027 8.9882 6.15251 8.96617 6.17432L7.72839 7.41211C7.45446 7.33887 7.15124 7.40918 6.93591 7.62451C6.85964 7.70064 6.79913 7.79106 6.75785 7.89059C6.71656 7.99013 6.69531 8.09683 6.69531 8.20459C6.69531 8.31235 6.71656 8.41905 6.75785 8.51859C6.79913 8.61812 6.85964 8.70854 6.93591 8.78467C7.01203 8.86094 7.10245 8.92145 7.20199 8.96273C7.30152 9.00401 7.40823 9.02527 7.51598 9.02527C7.62374 9.02527 7.73044 9.00401 7.82998 8.96273C7.92952 8.92145 8.01993 8.86094 8.09606 8.78467C8.19808 8.68296 8.27144 8.55612 8.30874 8.41697C8.34603 8.27782 8.34594 8.13129 8.30846 7.99219L9.54625 6.75439C9.59166 6.70898 9.59166 6.63428 9.54625 6.58887L9.1317 6.17432ZM7.17614 4.6875H7.82067C7.88512 4.6875 7.93786 4.63477 7.93786 4.57031V3.39844C7.93786 3.33398 7.88512 3.28125 7.82067 3.28125H7.17614C7.11169 3.28125 7.05896 3.33398 7.05896 3.39844V4.57031C7.05896 4.63477 7.11169 4.6875 7.17614 4.6875Z" fill="white"/>
<path d="M13.5469 5.64844C13.2175 4.86871 12.7399 4.16031 12.1406 3.5625C11.5428 2.96324 10.8344 2.48567 10.0547 2.15625C9.24463 1.81348 8.38623 1.64062 7.5 1.64062C6.61377 1.64062 5.75537 1.81348 4.94531 2.15625C4.16559 2.48567 3.45719 2.96324 2.85938 3.5625C2.26012 4.16031 1.78255 4.86871 1.45312 5.64844C1.11035 6.4585 0.9375 7.31689 0.9375 8.20312C0.9375 10.147 1.7915 11.978 3.27979 13.229L3.30469 13.2495C3.38965 13.3198 3.49658 13.3594 3.60645 13.3594H11.395C11.5049 13.3594 11.6118 13.3198 11.6968 13.2495L11.7217 13.229C13.2085 11.978 14.0625 10.147 14.0625 8.20312C14.0625 7.31689 13.8882 6.4585 13.5469 5.64844ZM11.1533 12.2461H3.84668C3.28066 11.7357 2.82827 11.1121 2.51888 10.4155C2.20949 9.71904 2.05001 8.96526 2.05078 8.20312C2.05078 6.74707 2.61768 5.37891 3.64746 4.35059C4.67725 3.3208 6.04541 2.75391 7.5 2.75391C8.95605 2.75391 10.3242 3.3208 11.3525 4.35059C12.3823 5.38037 12.9492 6.74854 12.9492 8.20312C12.9492 9.75 12.2974 11.2134 11.1533 12.2461Z" fill="white"/>
<path d="M11.1704 4.99217L10.7148 4.53661C10.6928 4.5148 10.6631 4.50256 10.6321 4.50256C10.6011 4.50256 10.5713 4.5148 10.5493 4.53661L9.72021 5.36571C9.69841 5.38773 9.68617 5.41748 9.68617 5.44847C9.68617 5.47947 9.69841 5.50921 9.72021 5.53124L10.1758 5.9868C10.2212 6.03221 10.2959 6.03221 10.3413 5.9868L11.1704 5.1577C11.2158 5.11229 11.2158 5.03758 11.1704 4.99217ZM10.9844 7.88084V8.52538C10.9844 8.58983 11.0371 8.64256 11.1016 8.64256H12.2734C12.3379 8.64256 12.3906 8.58983 12.3906 8.52538V7.88084C12.3906 7.81639 12.3379 7.76366 12.2734 7.76366H11.1016C11.0371 7.76366 10.9844 7.81639 10.9844 7.88084ZM4.45264 4.53661C4.43061 4.5148 4.40087 4.50256 4.36987 4.50256C4.33888 4.50256 4.30913 4.5148 4.28711 4.53661L3.83154 4.99217C3.80973 5.0142 3.7975 5.04394 3.7975 5.07494C3.7975 5.10593 3.80973 5.13568 3.83154 5.1577L4.66064 5.9868C4.70605 6.03221 4.78076 6.03221 4.82617 5.9868L5.28174 5.53124C5.32715 5.48583 5.32715 5.41112 5.28174 5.36571L4.45264 4.53661ZM3.83594 7.76366H2.66406C2.59961 7.76366 2.54688 7.81639 2.54688 7.88084V8.52538C2.54688 8.58983 2.59961 8.64256 2.66406 8.64256H3.83594C3.90039 8.64256 3.95312 8.58983 3.95312 8.52538V7.88084C3.95312 7.81639 3.90039 7.76366 3.83594 7.76366Z" fill="white"/>
</svg>
