<svg width="15" height="15" viewBox="0 0 15 15" fill="none" xmlns="http://www.w3.org/2000/svg">
<path d="M8.51849 6.92434C8.51849 7.24831 8.56014 7.63245 8.64344 8.07675C8.65269 8.12303 8.72905 8.28733 8.87251 8.56965C9.01597 8.85196 9.14091 9.19213 9.24735 9.59016C9.35379 9.98818 9.40701 10.4325 9.40701 10.9231H8.51849C8.51849 10.9138 8.51155 10.8305 8.49766 10.6731C8.48378 10.5158 8.46527 10.3515 8.44213 10.1802C8.41899 10.009 8.39123 9.82388 8.35883 9.62487C8.32644 9.42586 8.2871 9.24073 8.24083 9.06949C8.19455 8.89825 8.13902 8.7756 8.07423 8.70155C7.86135 8.4794 7.73409 8.25956 7.69244 8.04204C7.65079 7.82452 7.62997 7.45195 7.62997 6.92434C7.62997 6.18384 7.80351 5.55441 8.15059 5.03605C8.49766 4.5177 8.91647 4.25852 9.40701 4.25852C9.54584 4.25852 9.69392 4.28629 9.85127 4.34183C9.46254 4.49919 9.14323 4.8139 8.89333 5.28597C8.64344 5.75804 8.51849 6.30417 8.51849 6.92434ZM5.85293 3.53653C5.85293 3.88827 5.89458 4.30018 5.97788 4.77225C6.48693 5.34614 6.74145 6.12367 6.74145 7.10484C6.74145 8.72469 6.59336 9.84933 6.29719 10.4788C6.00102 9.1366 5.85293 8.01196 5.85293 7.10484C5.85293 6.3921 5.81128 5.9802 5.72798 5.86912C5.21894 5.29523 4.96441 4.5177 4.96441 3.53653C4.96441 2.759 5.13795 2.09255 5.48503 1.53717C5.83211 0.981791 6.25091 0.704102 6.74145 0.704102C6.88028 0.704102 7.02837 0.736499 7.18571 0.801293C6.79698 0.95865 6.47767 1.29188 6.22778 1.80097C5.97788 2.31007 5.85293 2.88859 5.85293 3.53653ZM11.8088 13.214C11.6144 13.6768 11.3622 14.0772 11.0522 14.415C10.7421 14.7529 10.4158 14.9218 10.0734 14.9218H4.29802C3.95557 14.9218 3.62701 14.7505 3.31232 14.4081C2.99764 14.0656 2.74312 13.6583 2.54875 13.1862C2.39141 13.0937 2.1554 12.9595 1.84071 12.7836C1.52603 12.6077 1.29002 12.4735 1.13268 12.3809C0.975334 12.2884 0.799482 12.175 0.605118 12.0408C0.410755 11.9065 0.271924 11.7862 0.188625 11.6798C0.105326 11.5733 0.0683048 11.4692 0.0775602 11.3674H14.2939C14.2939 11.5062 14.2522 11.6404 14.1689 11.77C14.0856 11.8996 13.9491 12.0292 13.7594 12.1588C13.5696 12.2884 13.3915 12.3971 13.2249 12.4851C13.0583 12.573 12.8246 12.6933 12.5238 12.8461C12.223 12.9988 11.9846 13.1214 11.8088 13.214Z" fill="#282B30"/>
</svg>
