<svg width="8" height="8" viewBox="0 0 8 8" fill="none" xmlns="http://www.w3.org/2000/svg">
<path d="M0.948956 2.7482V7.15768C0.948956 7.4002 1.19317 7.59863 1.49166 7.59863H6.37601C6.6745 7.59863 6.91872 7.4002 6.91872 7.15768V2.7482H0.948956ZM2.57707 6.71673H2.03437V3.6301H2.57707V6.71673ZM3.66248 6.71673H3.11978V3.6301H3.66248V6.71673ZM4.74789 6.71673H4.20519V3.6301H4.74789V6.71673ZM5.83331 6.71673H5.2906V3.6301H5.83331V6.71673ZM7.05439 1.42535H5.2906V0.874168C5.29017 0.786565 5.24715 0.70265 5.17091 0.640705C5.09467 0.57876 4.99139 0.543805 4.88357 0.543457H2.9841C2.87628 0.543805 2.773 0.57876 2.69676 0.640705C2.62052 0.70265 2.5775 0.786565 2.57707 0.874168V1.42535H0.813279C0.705416 1.42559 0.602053 1.4605 0.525783 1.52247C0.449512 1.58444 0.406536 1.66843 0.40625 1.75606V2.30725H7.46142V1.75606C7.46114 1.66843 7.41816 1.58444 7.34189 1.52247C7.26562 1.4605 7.16226 1.42559 7.05439 1.42535ZM4.74789 1.42535H3.11978V0.990138H4.74789V1.42535Z" fill="white"/>
</svg>
