<svg width="8" height="8" viewBox="0 0 8 8" fill="none" xmlns="http://www.w3.org/2000/svg">
<path d="M6.65439 0.769112L6.72132 0.702186C6.77169 0.651842 6.83148 0.611913 6.89728 0.584678C6.96309 0.557443 7.03361 0.543436 7.10483 0.543457C7.17604 0.543478 7.24656 0.557526 7.31234 0.584799C7.37813 0.612073 7.4379 0.652037 7.48825 0.702411C7.53859 0.752784 7.57852 0.812581 7.60575 0.878386C7.63298 0.944191 7.64699 1.01472 7.64697 1.08593C7.64695 1.15715 7.6329 1.22767 7.60563 1.29346C7.57836 1.35925 7.53839 1.41902 7.48802 1.46937L7.4211 1.53584C7.53558 1.66424 7.59661 1.83157 7.59169 2.00353C7.58676 2.17549 7.51624 2.33905 7.3946 2.46068L2.77191 7.08397C2.74301 7.11271 2.70683 7.13305 2.66725 7.14281L0.870639 7.59197C0.833041 7.60134 0.793661 7.60081 0.756326 7.59045C0.718991 7.58009 0.684971 7.56025 0.657574 7.53285C0.630177 7.50545 0.610334 7.47143 0.599974 7.43409C0.589614 7.39676 0.589089 7.35738 0.598452 7.31978L1.04761 5.52311C1.05743 5.48369 1.07777 5.44767 1.10644 5.4189L5.43718 1.08802C5.39387 1.05754 5.34118 1.04334 5.28841 1.04794C5.23565 1.05255 5.18621 1.07565 5.14883 1.11317L3.67021 2.59229C3.64933 2.61317 3.62455 2.62973 3.59726 2.64103C3.56998 2.65233 3.54074 2.65815 3.51121 2.65815C3.48168 2.65815 3.45244 2.65233 3.42516 2.64103C3.39788 2.62973 3.37309 2.61317 3.35221 2.59229C3.33133 2.5714 3.31477 2.54662 3.30347 2.51933C3.29217 2.49205 3.28635 2.46281 3.28635 2.43328C3.28635 2.40375 3.29217 2.37451 3.30347 2.34723C3.31477 2.31994 3.33133 2.29516 3.35221 2.27427L4.83173 0.795613C4.95343 0.673895 5.11711 0.603379 5.28917 0.598534C5.46123 0.59369 5.62862 0.654885 5.75698 0.769561C5.88039 0.659263 6.04009 0.598254 6.2056 0.598171C6.37112 0.598088 6.53087 0.658938 6.65439 0.769112ZM6.36514 1.11317C6.32302 1.07107 6.26591 1.04742 6.20636 1.04742C6.14681 1.04742 6.0897 1.07107 6.04758 1.11317L1.46756 5.69244L1.12441 7.06555L2.49747 6.72239L7.07749 2.14312C7.09841 2.12226 7.115 2.09747 7.12632 2.07019C7.13764 2.0429 7.14347 2.01365 7.14347 1.98411C7.14347 1.95457 7.13764 1.92532 7.12632 1.89804C7.115 1.87075 7.09841 1.84597 7.07749 1.82511L6.36558 1.11317H6.36514Z" fill="white"/>
</svg>
