<svg width="14" height="11" viewBox="0 0 14 11" fill="none" xmlns="http://www.w3.org/2000/svg">
<path d="M5.25177 5.65746C5.25177 6.1265 5.4381 6.57633 5.76977 6.908C6.10143 7.23966 6.55126 7.42599 7.02031 7.42599C7.48935 7.42599 7.93919 7.23966 8.27085 6.908C8.60252 6.57633 8.78885 6.1265 8.78885 5.65746C8.78885 5.18841 8.60252 4.73858 8.27085 4.40692C7.93919 4.07525 7.48935 3.88893 7.02031 3.88893C6.55126 3.88893 6.10143 4.07525 5.76977 4.40692C5.4381 4.73858 5.25177 5.18841 5.25177 5.65746ZM13.8765 5.25006C12.3796 2.09671 10.1168 0.509766 7.08347 0.509766C4.04854 0.509766 1.78734 2.09671 0.290401 5.25164C0.230359 5.37878 0.199219 5.51764 0.199219 5.65825C0.199219 5.79885 0.230359 5.93771 0.290401 6.06485C1.78734 9.21821 4.05012 10.8052 7.08347 10.8052C10.1184 10.8052 12.3796 9.21821 13.8765 6.06327C13.9981 5.80747 13.9981 5.51061 13.8765 5.25006ZM7.02031 8.43658C5.48547 8.43658 4.24118 7.19229 4.24118 5.65746C4.24118 4.12262 5.48547 2.87834 7.02031 2.87834C8.55515 2.87834 9.79944 4.12262 9.79944 5.65746C9.79944 7.19229 8.55515 8.43658 7.02031 8.43658Z" fill="#282B30" fill-opacity="0.6"/>
</svg>
