<svg width="15" height="16" viewBox="0 0 15 16" fill="none" xmlns="http://www.w3.org/2000/svg">
<g opacity="0.7" clip-path="url(#clip0_241_10572)">
<path d="M7.5 14.4851C5.75952 14.4851 4.09032 13.7937 2.85961 12.563C1.6289 11.3323 0.9375 9.66309 0.9375 7.92261C0.9375 6.18212 1.6289 4.51293 2.85961 3.28222C4.09032 2.05151 5.75952 1.36011 7.5 1.36011C9.24048 1.36011 10.9097 2.05151 12.1404 3.28222C13.3711 4.51293 14.0625 6.18212 14.0625 7.92261C14.0625 9.66309 13.3711 11.3323 12.1404 12.563C10.9097 13.7937 9.24048 14.4851 7.5 14.4851ZM7.5 15.4226C9.48912 15.4226 11.3968 14.6324 12.8033 13.2259C14.2098 11.8194 15 9.91173 15 7.92261C15 5.93348 14.2098 4.02583 12.8033 2.61931C11.3968 1.21278 9.48912 0.422607 7.5 0.422607C5.51088 0.422607 3.60322 1.21278 2.1967 2.61931C0.790176 4.02583 0 5.93348 0 7.92261C0 9.91173 0.790176 11.8194 2.1967 13.2259C3.60322 14.6324 5.51088 15.4226 7.5 15.4226Z" fill="#FF7B01" fill-opacity="0.7"/>
<path d="M4.01756 12.0785C4.12523 12.1407 4.25317 12.1575 4.37325 12.1254C4.49333 12.0932 4.59572 12.0146 4.65788 11.907C4.94579 11.4079 5.36011 10.9935 5.85912 10.7055C6.35813 10.4175 6.92422 10.266 7.50038 10.2664C8.71444 10.2664 9.77475 10.9254 10.3429 11.907C10.4055 12.0138 10.5078 12.0915 10.6274 12.1231C10.7471 12.1547 10.8744 12.1378 10.9816 12.0759C11.0888 12.014 11.1672 11.9122 11.1996 11.7927C11.2321 11.6733 11.2159 11.5458 11.1548 11.4382C10.7846 10.7967 10.2519 10.2639 9.61037 9.8936C8.96885 9.5233 8.2411 9.32852 7.50038 9.32886C6.75969 9.32871 6.03202 9.52358 5.39053 9.89386C4.74904 10.2641 4.21635 10.7968 3.846 11.4382C3.78385 11.5459 3.767 11.6738 3.79918 11.7939C3.83135 11.914 3.90991 12.0164 4.01756 12.0785ZM6.56288 6.51636C6.56288 7.29261 6.14288 7.92261 5.62538 7.92261C5.10788 7.92261 4.68788 7.29261 4.68788 6.51636C4.68788 5.74011 5.10788 5.11011 5.62538 5.11011C6.14288 5.11011 6.56288 5.74011 6.56288 6.51636ZM10.3129 6.51636C10.3129 7.29261 9.89288 7.92261 9.37538 7.92261C8.85788 7.92261 8.43788 7.29261 8.43788 6.51636C8.43788 5.74011 8.85788 5.11011 9.37538 5.11011C9.89288 5.11011 10.3129 5.74011 10.3129 6.51636Z" fill="#FF7B01" fill-opacity="0.7"/>
</g>
<defs>
<clipPath id="clip0_241_10572">
<rect width="15" height="15" fill="white" transform="translate(0 0.422607)"/>
</clipPath>
</defs>
</svg>
