<svg width="15" height="15" viewBox="0 0 15 15" fill="none" xmlns="http://www.w3.org/2000/svg">
<path fill-rule="evenodd" clip-rule="evenodd" d="M7.51322 2.10655e-06C5.65189 -0.00103635 3.85626 0.381903 2.47492 1.07448C1.09358 1.76706 0.225078 2.71986 0.0380167 3.74792C-0.149045 4.77598 0.35868 5.80596 1.46263 6.6379C2.56657 7.46983 4.18798 8.04438 6.01209 8.25V10H1.50869V11.6667H6.01209V15H9.01435V11.6667H13.5178V10H9.01435V8.25C10.8328 8.0409 12.4471 7.46515 13.5455 6.63395C14.644 5.80275 15.1486 4.77507 14.962 3.74941C14.7753 2.72374 13.9107 1.77284 12.535 1.08038C11.1593 0.387915 9.37021 0.0030089 7.51322 2.10655e-06ZM3.00982 4.16667C3.00982 4.82971 3.48429 5.46559 4.32884 5.93444C5.17339 6.40328 6.31885 6.66667 7.51322 6.66667C8.7076 6.66667 9.85305 6.40328 10.6976 5.93444C11.5422 5.46559 12.0166 4.82971 12.0166 4.16667C12.0166 3.50363 11.5422 2.86774 10.6976 2.3989C9.85305 1.93006 8.7076 1.66667 7.51322 1.66667C6.31885 1.66667 5.17339 1.93006 4.32884 2.3989C3.48429 2.86774 3.00982 3.50363 3.00982 4.16667Z" fill="black"/>
</svg>
