<svg width="12" height="12" viewBox="0 0 12 12" fill="none" xmlns="http://www.w3.org/2000/svg">
<path d="M11.4545 5.28H10.2955V1.92C10.2955 0.8595 9.31875 0 8.11364 0H3.88636C2.68125 0 1.70455 0.8595 1.70455 1.92V5.28H0.545455C0.24375 5.28 0 5.4945 0 5.76V11.52C0 11.7855 0.24375 12 0.545455 12H11.4545C11.7563 12 12 11.7855 12 11.52V5.76C12 5.4945 11.7563 5.28 11.4545 5.28ZM6.47727 8.835V9.63C6.47727 9.696 6.41591 9.75 6.34091 9.75H5.65909C5.58409 9.75 5.52273 9.696 5.52273 9.63V8.835C5.38202 8.7461 5.277 8.62021 5.22278 8.47544C5.16856 8.33068 5.16793 8.1745 5.22099 8.0294C5.27405 7.8843 5.37806 7.75776 5.51805 7.66799C5.65804 7.57822 5.82679 7.52986 6 7.52986C6.17321 7.52986 6.34196 7.57822 6.48195 7.66799C6.62194 7.75776 6.72595 7.8843 6.77901 8.0294C6.83207 8.1745 6.83145 8.33068 6.77722 8.47544C6.723 8.62021 6.61798 8.7461 6.47727 8.835ZM9.06818 5.28H2.93182V1.92C2.93182 1.4565 3.35966 1.08 3.88636 1.08H8.11364C8.64034 1.08 9.06818 1.4565 9.06818 1.92V5.28Z" fill="#282B30"/>
</svg>
