<svg width="10" height="10" viewBox="0 0 10 10" fill="none" xmlns="http://www.w3.org/2000/svg">
<path d="M9.64286 0H0.357143C0.159598 0 0 0.203125 0 0.454545V9.54545C0 9.79688 0.159598 10 0.357143 10H9.64286C9.8404 10 10 9.79688 10 9.54545V0.454545C10 0.203125 9.8404 0 9.64286 0ZM9.19643 1.57386V8.97727H0.803571V1.57386L0.495536 1.26847L0.934152 0.551136L1.41183 1.02415H8.58929L9.06697 0.551136L9.50558 1.26847L9.19643 1.57386ZM8.58929 1.02273L5 4.57386L1.41071 1.02273L0.933036 0.549716L0.49442 1.26705L0.802455 1.57244L4.61496 5.34517C4.7246 5.45358 4.85948 5.51243 4.99833 5.51243C5.13717 5.51243 5.27205 5.45358 5.3817 5.34517L9.19643 1.57386L9.50446 1.26847L9.06585 0.551136L8.58929 1.02273Z" fill="#282B30" fill-opacity="0.59"/>
</svg>
