<svg width="15" height="15" viewBox="0 0 15 15" fill="none" xmlns="http://www.w3.org/2000/svg">
<path d="M2.5 0C1.83696 0 1.20107 0.31607 0.732233 0.87868C0.263392 1.44129 0 2.20435 0 3V3.3015L7.5 8.148L15 3.303V3C15 2.20435 14.7366 1.44129 14.2678 0.87868C13.7989 0.31607 13.163 0 12.5 0H2.5ZM15 5.0055L7.79625 9.66C7.7052 9.71882 7.60341 9.74961 7.5 9.74961C7.39659 9.74961 7.2948 9.71882 7.20375 9.66L0 5.0055V12C0 12.7956 0.263392 13.5587 0.732233 14.1213C1.20107 14.6839 1.83696 15 2.5 15H12.5C13.163 15 13.7989 14.6839 14.2678 14.1213C14.7366 13.5587 15 12.7956 15 12V5.0055Z" fill="black"/>
</svg>
