<svg width="12" height="12" viewBox="0 0 12 12" fill="none" xmlns="http://www.w3.org/2000/svg">
<path d="M3.85714 0C3.51615 0 3.18912 0.158035 2.94801 0.43934C2.70689 0.720644 2.57143 1.10218 2.57143 1.5V2H1.71429C1.25963 2 0.823594 2.21071 0.502103 2.58579C0.180612 2.96086 0 3.46957 0 4V8.5C0 8.89782 0.135459 9.27936 0.376577 9.56066C0.617695 9.84196 0.944722 10 1.28571 10H2.57143V10.5C2.57143 10.8978 2.70689 11.2794 2.94801 11.5607C3.18912 11.842 3.51615 12 3.85714 12H8.22857C8.56956 12 8.89659 11.842 9.13771 11.5607C9.37883 11.2794 9.51429 10.8978 9.51429 10.5V10H10.7143C11.0553 10 11.3823 9.84196 11.6234 9.56066C11.8645 9.27936 12 8.89782 12 8.5V4C12 3.46957 11.8194 2.96086 11.4979 2.58579C11.1764 2.21071 10.7404 2 10.2857 2H9.42857V1.5C9.42857 1.10218 9.29311 0.720644 9.05199 0.43934C8.81088 0.158035 8.48385 0 8.14286 0H3.85714ZM8.57143 2H3.42857V1.5C3.42857 1.36739 3.47372 1.24021 3.5541 1.14645C3.63447 1.05268 3.74348 1 3.85714 1H8.14286C8.25652 1 8.36553 1.05268 8.4459 1.14645C8.52628 1.24021 8.57143 1.36739 8.57143 1.5V2ZM3.85714 8H8.22857C8.34224 8 8.45124 8.05268 8.53162 8.14645C8.61199 8.24021 8.65714 8.36739 8.65714 8.5V10.5C8.65714 10.6326 8.61199 10.7598 8.53162 10.8536C8.45124 10.9473 8.34224 11 8.22857 11H3.85714C3.74348 11 3.63447 10.9473 3.5541 10.8536C3.47372 10.7598 3.42857 10.6326 3.42857 10.5V8.5C3.42857 8.36739 3.47372 8.24021 3.5541 8.14645C3.63447 8.05268 3.74348 8 3.85714 8Z" fill="white"/>
</svg>
