<svg width="15" height="15" viewBox="0 0 15 15" fill="none" xmlns="http://www.w3.org/2000/svg">
<g clip-path="url(#clip0_236_6456)">
<path d="M7.18455 2.6817C5.80582 2.6817 4.50902 3.21903 3.53294 4.19511C2.55686 5.1698 2.01953 6.46661 2.01953 7.84672C2.01953 9.31292 2.63739 10.7 3.72177 11.6788H10.6473C11.1838 11.1951 11.6126 10.6039 11.9059 9.94376C12.1991 9.28357 12.3503 8.56911 12.3496 7.84672C12.3496 6.46799 11.8122 5.17119 10.8362 4.19511C9.86147 3.21903 8.56467 2.6817 7.18455 2.6817ZM6.76802 3.29262C6.76802 3.23153 6.818 3.18154 6.87909 3.18154H7.49001C7.5511 3.18154 7.60108 3.23153 7.60108 3.29262V4.40337C7.60108 4.46447 7.5511 4.51445 7.49001 4.51445H6.87909C6.818 4.51445 6.76802 4.46447 6.76802 4.40337V3.29262ZM3.82451 8.15218C3.82451 8.21327 3.77453 8.26325 3.71344 8.26325H2.60268C2.54159 8.26325 2.4916 8.21327 2.4916 8.15218V7.54126C2.4916 7.48017 2.54159 7.43019 2.60268 7.43019H3.71344C3.77453 7.43019 3.82451 7.48017 3.82451 7.54126V8.15218ZM5.08383 5.3142L4.65202 5.746C4.63115 5.76667 4.60296 5.77827 4.57358 5.77827C4.5442 5.77827 4.51601 5.76667 4.49513 5.746L3.70927 4.96014C3.6886 4.93927 3.677 4.91107 3.677 4.88169C3.677 4.85232 3.6886 4.82412 3.70927 4.80325L4.14108 4.37144C4.18412 4.3284 4.25493 4.3284 4.29797 4.37144L5.08383 5.1573C5.12687 5.20034 5.12687 5.27115 5.08383 5.3142ZM9.1256 6.47355L7.95236 7.64678C8.02178 7.90642 7.95514 8.19383 7.75104 8.39793C7.67888 8.47023 7.59318 8.52758 7.49883 8.56671C7.40449 8.60584 7.30335 8.62598 7.20121 8.62598C7.09907 8.62598 6.99794 8.60584 6.90359 8.56671C6.80925 8.52758 6.72354 8.47023 6.65139 8.39793C6.5791 8.32578 6.52174 8.24008 6.48261 8.14573C6.44348 8.05139 6.42334 7.95025 6.42334 7.84811C6.42334 7.74597 6.44348 7.64483 6.48261 7.55049C6.52174 7.45614 6.5791 7.37044 6.65139 7.29829C6.7478 7.20159 6.86802 7.13205 6.99991 7.0967C7.1318 7.06135 7.27069 7.06144 7.40254 7.09696L8.57577 5.92372C8.61882 5.88068 8.68963 5.88068 8.73267 5.92372L9.1256 6.31665C9.16864 6.3597 9.16864 6.43051 9.1256 6.47355ZM9.72263 5.746L9.29082 5.3142C9.27015 5.29332 9.25856 5.26513 9.25856 5.23575C9.25856 5.20637 9.27015 5.17818 9.29082 5.1573L10.0767 4.37144C10.1197 4.3284 10.1905 4.3284 10.2336 4.37144L10.6654 4.80325C10.7084 4.84629 10.7084 4.9171 10.6654 4.96014L9.87952 5.746C9.85865 5.76667 9.83046 5.77827 9.80108 5.77827C9.7717 5.77827 9.74351 5.76667 9.72263 5.746ZM11.822 7.54126V8.15218C11.822 8.21327 11.772 8.26325 11.7109 8.26325H10.6001C10.539 8.26325 10.4891 8.21327 10.4891 8.15218V7.54126C10.4891 7.48017 10.539 7.43019 10.6001 7.43019H11.7109C11.772 7.43019 11.822 7.48017 11.822 7.54126Z" fill="white" fill-opacity="0.15"/>
<path d="M8.73315 5.9237C8.71227 5.90303 8.68408 5.89143 8.6547 5.89143C8.62532 5.89143 8.59713 5.90303 8.57625 5.9237L7.40302 7.09694C7.14338 7.02751 6.85598 7.09416 6.65188 7.29826C6.57959 7.37042 6.52223 7.45612 6.4831 7.55046C6.44397 7.64481 6.42383 7.74595 6.42383 7.84808C6.42383 7.95022 6.44397 8.05136 6.4831 8.14571C6.52223 8.24005 6.57959 8.32576 6.65188 8.39791C6.72403 8.4702 6.80973 8.52755 6.90408 8.56669C6.99842 8.60582 7.09956 8.62596 7.2017 8.62596C7.30384 8.62596 7.40497 8.60582 7.49932 8.56669C7.59366 8.52755 7.67937 8.4702 7.75152 8.39791C7.84822 8.3015 7.91776 8.18128 7.95311 8.04939C7.98846 7.91749 7.98837 7.77861 7.95284 7.64676L9.12607 6.47352C9.16912 6.43048 9.16912 6.35967 9.12607 6.31663L8.73315 5.9237ZM6.87958 4.51443H7.49049C7.55158 4.51443 7.60157 4.46444 7.60157 4.40335V3.29259C7.60157 3.2315 7.55158 3.18152 7.49049 3.18152H6.87958C6.81849 3.18152 6.76851 3.2315 6.76851 3.29259V4.40335C6.76851 4.46444 6.81849 4.51443 6.87958 4.51443Z" fill="#282B30"/>
<path d="M12.9166 5.42525C12.6043 4.6862 12.1517 4.01474 11.5837 3.44811C11.017 2.8801 10.3456 2.42744 9.60653 2.1152C8.83872 1.7903 8.02509 1.62646 7.18508 1.62646C6.34507 1.62646 5.53144 1.7903 4.76363 2.1152C4.02457 2.42744 3.35312 2.8801 2.78648 3.44811C2.21848 4.01474 1.76582 4.6862 1.45358 5.42525C1.12868 6.19306 0.964844 7.00669 0.964844 7.8467C0.964844 9.68917 1.77431 11.4247 3.18497 12.6105L3.20857 12.6299C3.2891 12.6965 3.39046 12.734 3.49459 12.734H10.877C10.9811 12.734 11.0824 12.6965 11.163 12.6299L11.1866 12.6105C12.5959 11.4247 13.4053 9.68917 13.4053 7.8467C13.4053 7.00669 13.2401 6.19306 12.9166 5.42525ZM10.6479 11.6788H3.7223C3.1858 11.1951 2.75701 10.6039 2.46375 9.94374C2.17049 9.28356 2.01933 8.56909 2.02006 7.8467C2.02006 6.46659 2.55739 5.16978 3.53347 4.19509C4.50955 3.21901 5.80635 2.68168 7.18508 2.68168C8.5652 2.68168 9.86201 3.21901 10.8367 4.19509C11.8128 5.17117 12.3501 6.46798 12.3501 7.8467C12.3501 9.3129 11.7322 10.7 10.6479 11.6788Z" fill="#282B30"/>
<path d="M10.666 4.80325L10.2342 4.37144C10.2133 4.35077 10.1851 4.33917 10.1557 4.33917C10.1263 4.33917 10.0981 4.35077 10.0773 4.37144L9.29141 5.1573C9.27074 5.17818 9.25914 5.20637 9.25914 5.23575C9.25914 5.26513 9.27074 5.29332 9.29141 5.31419L9.72321 5.746C9.76626 5.78904 9.83707 5.78904 9.88011 5.746L10.666 4.96014C10.709 4.9171 10.709 4.84629 10.666 4.80325ZM10.4896 7.54126V8.15218C10.4896 8.21327 10.5396 8.26325 10.6007 8.26325H11.7115C11.7726 8.26325 11.8225 8.21327 11.8225 8.15218V7.54126C11.8225 7.48017 11.7726 7.43019 11.7115 7.43019H10.6007C10.5396 7.43019 10.4896 7.48017 10.4896 7.54126ZM4.29856 4.37144C4.27768 4.35077 4.24949 4.33917 4.22011 4.33917C4.19073 4.33917 4.16254 4.35077 4.14166 4.37144L3.70985 4.80325C3.68918 4.82412 3.67759 4.85231 3.67759 4.88169C3.67759 4.91107 3.68918 4.93926 3.70985 4.96014L4.49571 5.746C4.53876 5.78904 4.60957 5.78904 4.65261 5.746L5.08442 5.31419C5.12746 5.27115 5.12746 5.20034 5.08442 5.1573L4.29856 4.37144ZM3.71402 7.43019H2.60326C2.54217 7.43019 2.49219 7.48017 2.49219 7.54126V8.15218C2.49219 8.21327 2.54217 8.26325 2.60326 8.26325H3.71402C3.77511 8.26325 3.8251 8.21327 3.8251 8.15218V7.54126C3.8251 7.48017 3.77511 7.43019 3.71402 7.43019Z" fill="#282B30"/>
</g>
<defs>
<clipPath id="clip0_236_6456">
<rect width="14.2177" height="14.2177" fill="white" transform="translate(0.0761719 0.0714111)"/>
</clipPath>
</defs>
</svg>
