<svg width="16" height="19" viewBox="0 0 16 19" fill="none" xmlns="http://www.w3.org/2000/svg">
<path d="M16 0L15.2686 0.314057L2.17829 6.15048H0V12.8504H2.17886L3.30343 13.3478L3.28629 13.4257V13.4525C2.91943 15.2213 3.59886 17.1877 4.85771 17.7438C4.86343 17.7463 4.87029 17.7413 4.87486 17.7438C6.088 18.284 7.43086 17.2999 7.804 15.4407L7.82114 15.362L15.2686 18.6868L16 19V0ZM14.8571 2.25116V16.7497L2.44571 11.2005L2.37543 11.1754H1.14286V7.82545H2.37486L2.44629 7.80033L14.8571 2.25032V2.25116ZM4.39257 13.8444L6.732 14.8662L6.71486 14.9441V14.9692C6.51829 15.949 5.80857 16.4281 5.19714 16.1475C4.52857 15.8603 4.18457 14.8461 4.37543 13.9491V13.924L4.39257 13.8444Z" fill="#C4C4C4" fill-opacity="0.8"/>
</svg>
