<svg width="16" height="17" viewBox="0 0 16 17" fill="none" xmlns="http://www.w3.org/2000/svg">
<path d="M15.995 1.4846C15.995 1.22345 15.9078 0.973 15.7526 0.78834C15.5973 0.60368 15.3868 0.49994 15.1673 0.49994C15.1251 0.49994 15.0845 0.507426 15.0438 0.514692V0.493774H0.827736V0.49994C0.608207 0.49994 0.397669 0.60368 0.242438 0.78834C0.0872076 0.973 0 1.22345 0 1.4846V15.6864H0.00925469C0.0558981 16.1777 0.402207 16.561 0.827551 16.561V16.5672H15.0436V16.5463C15.0842 16.5535 15.1247 16.561 15.1671 16.561C15.5926 16.561 15.9389 16.1779 15.9856 15.6864H16V1.4846H15.995ZM14.1572 14.3748H12.1469C12.1402 14.341 12.1298 14.3083 12.1162 14.2775L12.1195 14.2753L7.91439 5.61106L7.91273 5.61216C7.86635 5.49756 7.79375 5.40082 7.70326 5.33306C7.61277 5.26529 7.50806 5.22924 7.40113 5.22904C7.29126 5.22921 7.18377 5.26714 7.09159 5.33828C6.99942 5.40941 6.92649 5.51071 6.88158 5.63L4.08315 11.3957L3.39794 9.98413L3.39701 9.98479C3.37258 9.92435 3.33432 9.87332 3.28662 9.83757C3.23892 9.80182 3.18371 9.78279 3.12733 9.78266C3.00536 9.78266 2.90078 9.86963 2.85358 9.9936L1.84297 12.0759V2.69231H14.1572V14.3748Z" fill="#C4C4C4" fill-opacity="0.8"/>
<path d="M11.3543 8.24068C12.3868 8.24068 13.2237 7.24502 13.2237 6.01682C13.2237 4.78862 12.3868 3.79297 11.3543 3.79297C10.3218 3.79297 9.48486 4.78862 9.48486 6.01682C9.48486 7.24502 10.3218 8.24068 11.3543 8.24068Z" fill="#C4C4C4" fill-opacity="0.8"/>
</svg>
