<svg width="16" height="17" viewBox="0 0 16 17" fill="none" xmlns="http://www.w3.org/2000/svg">
<path d="M7.57895 0L2.94737 7.65H12.2105L7.57895 0ZM7.57895 3.264L9.20421 5.95H5.94526L7.57895 3.264ZM12.2105 9.35C10.1137 9.35 8.42105 11.0585 8.42105 13.175C8.42105 15.2915 10.1137 17 12.2105 17C14.3074 17 16 15.2915 16 13.175C16 11.0585 14.3074 9.35 12.2105 9.35ZM12.2105 15.3C11.6522 15.3 11.1167 15.0761 10.7219 14.6776C10.3271 14.2791 10.1053 13.7386 10.1053 13.175C10.1053 12.6114 10.3271 12.0709 10.7219 11.6724C11.1167 11.2739 11.6522 11.05 12.2105 11.05C12.7689 11.05 13.3044 11.2739 13.6992 11.6724C14.094 12.0709 14.3158 12.6114 14.3158 13.175C14.3158 13.7386 14.094 14.2791 13.6992 14.6776C13.3044 15.0761 12.7689 15.3 12.2105 15.3ZM6.73684 9.775H0V16.575H6.73684V9.775ZM5.05263 14.875H1.68421V11.475H5.05263V14.875Z" fill="#C4C4C4" fill-opacity="0.8"/>
</svg>
