<svg width="16" height="17" viewBox="0 0 16 17" fill="none" xmlns="http://www.w3.org/2000/svg">
<path d="M10.6666 3.40798C10.6666 4.29137 10.3856 5.13858 9.88554 5.76324C9.38544 6.38789 8.70716 6.73882 7.99992 6.73882C7.29267 6.73882 6.6144 6.38789 6.1143 5.76324C5.6142 5.13858 5.33325 4.29137 5.33325 3.40798C5.33325 2.52459 5.6142 1.67738 6.1143 1.05273C6.6144 0.428075 7.29267 0.0771484 7.99992 0.0771484C8.70716 0.0771484 9.38544 0.428075 9.88554 1.05273C10.3856 1.67738 10.6666 2.52459 10.6666 3.40798Z" fill="#C4C4C4" fill-opacity="0.9"/>
<path d="M15.1112 5.62851C15.1112 6.21744 14.9239 6.78225 14.5905 7.19868C14.2571 7.61512 13.8049 7.84907 13.3334 7.84907C12.8619 7.84907 12.4098 7.61512 12.0764 7.19868C11.743 6.78225 11.5557 6.21744 11.5557 5.62851C11.5557 5.03959 11.743 4.47478 12.0764 4.05834C12.4098 3.64191 12.8619 3.40796 13.3334 3.40796C13.8049 3.40796 14.2571 3.64191 14.5905 4.05834C14.9239 4.47478 15.1112 5.03959 15.1112 5.62851Z" fill="#C4C4C4" fill-opacity="0.9"/>
<path d="M11.5554 13.4005C11.5554 12.2226 11.1808 11.093 10.514 10.2601C9.84725 9.42725 8.94288 8.95935 7.99989 8.95935C7.0569 8.95935 6.15253 9.42725 5.48573 10.2601C4.81894 11.093 4.44434 12.2226 4.44434 13.4005V16.7313H11.5554V13.4005Z" fill="#C4C4C4" fill-opacity="0.9"/>
<path d="M4.44447 5.62851C4.44447 6.21744 4.25717 6.78225 3.92377 7.19868C3.59037 7.61512 3.13819 7.84907 2.66669 7.84907C2.1952 7.84907 1.74301 7.61512 1.40962 7.19868C1.07622 6.78225 0.888916 6.21744 0.888916 5.62851C0.888916 5.03959 1.07622 4.47478 1.40962 4.05834C1.74301 3.64191 2.1952 3.40796 2.66669 3.40796C3.13819 3.40796 3.59037 3.64191 3.92377 4.05834C4.25717 4.47478 4.44447 5.03959 4.44447 5.62851Z" fill="#C4C4C4" fill-opacity="0.9"/>
<path d="M13.3334 16.7313V13.4005C13.3347 12.2716 13.1052 11.1611 12.6667 10.174C13.0608 10.048 13.4727 10.0361 13.8711 10.1393C14.2694 10.2424 14.6436 10.4578 14.9651 10.769C15.2867 11.0802 15.5471 11.4791 15.7264 11.9351C15.9058 12.3912 15.9994 12.8924 16.0001 13.4005V16.7313H13.3334Z" fill="#C4C4C4" fill-opacity="0.9"/>
<path d="M3.33333 10.174C2.89489 11.1611 2.66542 12.2716 2.66667 13.4005V16.7313H2.36196e-07V13.4005C-0.000171083 12.892 0.0928563 12.3902 0.271953 11.9336C0.45105 11.477 0.711461 11.0777 1.03323 10.7662C1.355 10.4548 1.72958 10.2395 2.12828 10.1368C2.52697 10.0342 2.93918 10.0469 3.33333 10.174Z" fill="#C4C4C4" fill-opacity="0.9"/>
</svg>
