<svg width="16" height="22" viewBox="0 0 16 22" fill="none" xmlns="http://www.w3.org/2000/svg">
<path d="M10.5984 13.4622C10.4824 13.4177 9.7495 13.0304 10.2075 11.398H10.2009C11.3947 9.95639 12.307 7.6366 12.307 5.35271C12.307 1.84096 10.3154 0 8.00073 0C5.6846 0 3.70392 1.8401 3.70392 5.35271C3.70392 7.646 4.61112 9.9752 5.81222 11.4134C6.2804 12.8534 5.44321 13.3878 5.26819 13.4622C2.84412 14.4908 0 16.3643 0 18.2138V18.9072C0 21.4271 4.167 22 8.02334 22C11.8855 22 16 21.4271 16 18.9072V18.2138C16 16.3087 13.142 14.4498 10.5984 13.4622ZM6.57575 20.9089C6.57575 18.7294 7.75934 15.7871 7.75934 15.7871L6.94038 15.0338C6.94038 14.3138 8 13.5605 8 13.5605C8 13.5605 9.0567 14.3258 9.0567 15.0338L8.24066 15.7871C8.24066 15.7871 9.42425 18.7183 9.42425 20.9329C9.42425 21.28 6.57575 21.1997 6.57575 20.9089Z" fill="#C4C4C4" fill-opacity="0.8"/>
</svg>
