<svg width="16" height="19" viewBox="0 0 16 19" fill="none" xmlns="http://www.w3.org/2000/svg">
<path d="M8 0L4.984 2.31612H2.4V4.27893L0.776 5.54494C0.312 5.88843 0 6.50671 0 7.22314V17.0372C0 17.5578 0.168571 18.057 0.468629 18.4251C0.768687 18.7932 1.17565 19 1.6 19H14.4C15.288 19 16 18.1265 16 17.0372V7.22314C16 6.50671 15.688 5.88843 15.224 5.54494L13.6 4.27893V2.31612H11.016L8 0ZM4 4.27893H12V9.06818L8 12.1302L4 9.06818V4.27893ZM4.8 5.26033V6.73244H11.2V5.26033H4.8ZM2.4 6.61467V7.84143L1.6 7.22314L2.4 6.61467ZM13.6 6.61467L14.4 7.22314L13.6 7.84143V6.61467ZM4.8 7.71384V9.18595H11.2V7.71384H4.8Z" fill="#C4C4C4" fill-opacity="0.8"/>
</svg>
