<svg width="16" height="21" viewBox="0 0 16 21" fill="none" xmlns="http://www.w3.org/2000/svg">
<path d="M9.50094 20.58H6.49956C6.31151 20.5801 6.12909 20.5036 5.98257 20.3634C5.83605 20.2232 5.73422 20.0276 5.69397 19.8091L5.35838 17.9611C4.9107 17.7278 4.4862 17.436 4.09269 17.0911L2.57799 17.6649C2.3987 17.7329 2.20525 17.7259 2.02976 17.6451C1.85427 17.5642 1.7073 17.4144 1.61326 17.2205L0.109271 14.1298C0.016216 13.9357 -0.0187144 13.7098 0.0101943 13.489C0.0391031 13.2683 0.130139 13.0657 0.26841 12.9145L1.4434 11.6394C1.38997 11.0617 1.38997 10.4789 1.4434 9.90125L0.26841 8.62905C0.129944 8.47777 0.0387834 8.27503 0.00986994 8.05404C-0.0190435 7.83306 0.0160049 7.60695 0.109271 7.41276L1.60996 4.32006C1.704 4.12616 1.85097 3.97635 2.02646 3.89553C2.20195 3.8147 2.3954 3.80771 2.57469 3.87573L4.08939 4.44954C4.29058 4.27298 4.50002 4.10819 4.71605 3.9591C4.92467 3.81982 5.13905 3.69328 5.35838 3.58048L5.6948 1.73447C5.73485 1.51593 5.83648 1.32024 5.98285 1.17984C6.12922 1.03943 6.31154 0.96276 6.49956 0.962524H9.50094C9.68897 0.96276 9.87128 1.03943 10.0177 1.17984C10.164 1.32024 10.2657 1.51593 10.3057 1.73447L10.6454 3.58146C10.8763 3.70309 11.1022 3.83943 11.3207 3.99147C11.5244 4.13173 11.7215 4.28573 11.9111 4.4515L13.4266 3.87769C13.6058 3.80992 13.7991 3.81704 13.9744 3.89786C14.1497 3.97867 14.2965 4.12833 14.3905 4.32202L15.8912 7.41473C16.0825 7.81394 16.0166 8.31909 15.7321 8.63003L14.5571 9.90517C14.6105 10.4828 14.6105 11.0657 14.5571 11.6433L15.7321 12.9184C16.0166 13.2303 16.0825 13.7345 15.8912 14.1337L14.3905 17.2264C14.2965 17.4203 14.1495 17.5701 13.974 17.651C13.7986 17.7318 13.6051 17.7388 13.4258 17.6708L11.9111 17.097C11.5179 17.4416 11.0937 17.7331 10.6462 17.966L10.3057 19.8091C10.2655 20.0274 10.1638 20.2229 10.0174 20.3631C9.87108 20.5033 9.68885 20.5799 9.50094 20.58ZM7.99695 6.84778C7.12221 6.84778 6.2833 7.26115 5.66476 7.99695C5.04623 8.73275 4.69874 9.73071 4.69874 10.7713C4.69874 11.8119 5.04623 12.8098 5.66476 13.5456C6.2833 14.2814 7.12221 14.6948 7.99695 14.6948C8.8717 14.6948 9.71061 14.2814 10.3291 13.5456C10.9477 12.8098 11.2952 11.8119 11.2952 10.7713C11.2952 9.73071 10.9477 8.73275 10.3291 7.99695C9.71061 7.26115 8.8717 6.84778 7.99695 6.84778Z" fill="#C4C4C4" fill-opacity="0.8"/>
</svg>
