<svg width="18" height="21" viewBox="0 0 18 21" fill="none" xmlns="http://www.w3.org/2000/svg">
<path d="M4.55566 16.1934H10.7779H4.55566Z" fill="#C4C4C4" fill-opacity="0.1"/>
<path d="M4.55566 16.1934H10.7779" stroke="#C4C4C4" stroke-opacity="0.8" stroke-width="1.5" stroke-linecap="round" stroke-linejoin="round"/>
<path d="M4.55566 12.3867H5.44455H4.55566Z" fill="#C4C4C4" fill-opacity="0.1"/>
<path d="M4.55566 12.3867H5.44455" stroke="#C4C4C4" stroke-opacity="0.8" stroke-width="1.5" stroke-linecap="round" stroke-linejoin="round"/>
<path d="M4.55566 8.57996H7.22233H4.55566Z" fill="#C4C4C4" fill-opacity="0.1"/>
<path d="M4.55566 8.57996H7.22233" stroke="#C4C4C4" stroke-opacity="0.8" stroke-width="1.5" stroke-linecap="round" stroke-linejoin="round"/>
<path d="M4.55566 0.966675H13.0001L17.0001 5.24917V17.145" fill="#C4C4C4" fill-opacity="0.1"/>
<path d="M4.55566 0.966675H13.0001L17.0001 5.24917V17.145" stroke="#C4C4C4" stroke-opacity="0.8" stroke-width="1.5" stroke-linecap="round" stroke-linejoin="round"/>
<path d="M1 18.5725V5.24916C1 4.87056 1.14048 4.50747 1.39052 4.23976C1.64057 3.97205 1.97971 3.82166 2.33333 3.82166H11.0018C11.1432 3.82179 11.2787 3.88203 11.3787 3.98915L14.1769 6.985C14.2266 7.03819 14.2661 7.1014 14.2929 7.17097C14.3198 7.24055 14.3335 7.31512 14.3333 7.39041V18.5725C14.3333 18.9511 14.1929 19.3142 13.9428 19.5819C13.6928 19.8496 13.3536 20 13 20H2.33333C1.97971 20 1.64057 19.8496 1.39052 19.5819C1.14048 19.3142 1 18.9511 1 18.5725Z" fill="#C4C4C4" fill-opacity="0.1" stroke="#C4C4C4" stroke-opacity="0.8" stroke-width="1.5" stroke-linecap="round" stroke-linejoin="round"/>
<path d="M10.7778 7.05733V4.15856C10.7779 4.09201 10.7965 4.02699 10.831 3.9717C10.8656 3.91641 10.9147 3.87333 10.9722 3.84788C11.0296 3.82243 11.0928 3.81576 11.1537 3.82871C11.2147 3.84166 11.2707 3.87365 11.3147 3.92064L14.2409 7.05353C14.2853 7.10046 14.3155 7.16047 14.3279 7.22589C14.3402 7.29132 14.3341 7.3592 14.3102 7.42088C14.2864 7.48255 14.2459 7.53522 14.194 7.57217C14.1421 7.60912 14.0811 7.62867 14.0187 7.62833H11.3112C11.1697 7.62833 11.0341 7.56817 10.934 7.46109C10.834 7.35401 10.7778 7.20877 10.7778 7.05733Z" fill="#C4C4C4" fill-opacity="0.1" stroke="#C4C4C4" stroke-opacity="0.8" stroke-width="1.5" stroke-linecap="round" stroke-linejoin="round"/>
</svg>
