<svg width="16" height="19" viewBox="0 0 16 19" fill="none" xmlns="http://www.w3.org/2000/svg">
<path d="M15.95 8.08545C15.8854 7.74607 15.7071 7.43248 15.5037 7.3008C15.4391 7.25804 15.0391 7.20781 14.6105 7.18609C13.8927 7.14808 13.8139 7.13111 13.5853 6.97364C13.2247 6.72317 13.1281 6.45167 13.1247 5.722C13.1213 4.32171 12.6315 3.01984 11.664 1.84897C10.9748 1.01341 10.2033 0.44868 9.32442 0.131019C9.11355 0.0543187 8.64209 0.0292045 7.0637 0.00816279C4.58467 -0.0257754 4.03492 0.033277 3.192 0.43239C1.63818 1.16206 0.523822 2.71507 0.116937 4.69978C0.0420746 5.0731 0.0237876 5.67109 0.00607212 9.10767C-0.0150722 13.4137 0.00950098 14.0457 0.234659 14.8982C0.79184 17.0024 2.37423 18.5595 3.96348 18.8988C4.49209 19.0135 11.0103 19.0387 11.6783 18.9328C12.8389 18.7461 13.7499 18.1902 14.6036 17.1551C15.2214 16.4044 15.6071 15.5939 15.8609 14.5208C16.0357 13.7742 16.0215 8.46284 15.95 8.08545ZM4.44523 5.38737C4.72411 5.05206 4.8024 5.03916 6.54537 5.03916C8.11348 5.03916 8.16663 5.04323 8.39579 5.18374C8.72781 5.38329 8.87411 5.66294 8.87411 6.11296C8.87411 6.51615 8.7381 6.79987 8.43465 7.02929C8.27063 7.15215 8.17406 7.16097 6.63795 7.16912C5.6916 7.17727 4.93441 7.15215 4.82354 7.11821C4.23036 6.91866 4.0092 5.90933 4.44466 5.38737H4.44523ZM11.296 13.8631L10.7639 13.9649L7.99576 14.0029C5.56359 14.0369 4.87783 13.9859 4.74925 13.9181C4.49552 13.7864 4.25608 13.4219 4.21722 13.0954C4.17778 12.7859 4.30979 12.3617 4.50981 12.1451C4.76354 11.8736 4.87383 11.8655 7.9849 11.8607C11.1851 11.8567 11.1674 11.8567 11.4709 12.192C11.9029 12.6712 11.8103 13.5156 11.296 13.8631Z" fill="#C4C4C4" fill-opacity="0.8"/>
</svg>
