<svg width="16" height="17" viewBox="0 0 16 17" fill="none" xmlns="http://www.w3.org/2000/svg">
<path d="M10.6666 3.52248C10.6666 4.40588 10.3856 5.25309 9.88554 5.87774C9.38544 6.50239 8.70716 6.85332 7.99992 6.85332C7.29267 6.85332 6.6144 6.50239 6.1143 5.87774C5.6142 5.25309 5.33325 4.40588 5.33325 3.52248C5.33325 2.63909 5.6142 1.79188 6.1143 1.16723C6.6144 0.542577 7.29267 0.19165 7.99992 0.19165C8.70716 0.19165 9.38544 0.542577 9.88554 1.16723C10.3856 1.79188 10.6666 2.63909 10.6666 3.52248Z" fill="#C4C4C4" fill-opacity="0.9"/>
<path d="M15.1112 5.74302C15.1112 6.33194 14.9239 6.89675 14.5905 7.31319C14.2571 7.72962 13.8049 7.96357 13.3334 7.96357C12.8619 7.96357 12.4098 7.72962 12.0764 7.31319C11.743 6.89675 11.5557 6.33194 11.5557 5.74302C11.5557 5.15409 11.743 4.58928 12.0764 4.17285C12.4098 3.75641 12.8619 3.52246 13.3334 3.52246C13.8049 3.52246 14.2571 3.75641 14.5905 4.17285C14.9239 4.58928 15.1112 5.15409 15.1112 5.74302Z" fill="#C4C4C4" fill-opacity="0.9"/>
<path d="M11.5554 13.515C11.5554 12.3371 11.1808 11.2075 10.514 10.3746C9.84725 9.54175 8.94288 9.07385 7.99989 9.07385C7.0569 9.07385 6.15253 9.54175 5.48573 10.3746C4.81894 11.2075 4.44434 12.3371 4.44434 13.515V16.8458H11.5554V13.515Z" fill="#C4C4C4" fill-opacity="0.9"/>
<path d="M4.44447 5.74302C4.44447 6.33194 4.25717 6.89675 3.92377 7.31319C3.59037 7.72962 3.13819 7.96357 2.66669 7.96357C2.1952 7.96357 1.74301 7.72962 1.40962 7.31319C1.07622 6.89675 0.888916 6.33194 0.888916 5.74302C0.888916 5.15409 1.07622 4.58928 1.40962 4.17285C1.74301 3.75641 2.1952 3.52246 2.66669 3.52246C3.13819 3.52246 3.59037 3.75641 3.92377 4.17285C4.25717 4.58928 4.44447 5.15409 4.44447 5.74302Z" fill="#C4C4C4" fill-opacity="0.9"/>
<path d="M13.3334 16.8458V13.515C13.3347 12.3861 13.1052 11.2756 12.6667 10.2885C13.0608 10.1625 13.4727 10.1506 13.8711 10.2538C14.2694 10.3569 14.6436 10.5723 14.9651 10.8835C15.2867 11.1947 15.5471 11.5936 15.7264 12.0496C15.9058 12.5057 15.9994 13.0069 16.0001 13.515V16.8458H13.3334Z" fill="#C4C4C4" fill-opacity="0.9"/>
<path d="M3.33333 10.2885C2.89489 11.2756 2.66542 12.3861 2.66667 13.515V16.8458H2.36196e-07V13.515C-0.000171083 13.0065 0.0928563 12.5047 0.271953 12.0481C0.45105 11.5915 0.711461 11.1922 1.03323 10.8807C1.355 10.5693 1.72958 10.354 2.12828 10.2513C2.52697 10.1487 2.93918 10.1614 3.33333 10.2885Z" fill="#C4C4C4" fill-opacity="0.9"/>
</svg>
