<svg width="16" height="17" viewBox="0 0 16 17" fill="none" xmlns="http://www.w3.org/2000/svg">
<path d="M15.3714 5.814C14.9698 4.68288 14.3877 3.65523 13.6571 2.788C12.9284 1.91868 12.0648 1.22588 11.1143 0.748C10.1268 0.25075 9.08036 0 8 0C6.91964 0 5.87321 0.25075 4.88571 0.748C3.93519 1.22588 3.07162 1.91868 2.34286 2.788C1.61234 3.65523 1.03015 4.68288 0.628571 5.814C0.210714 6.98913 0 8.23438 0 9.52C0 12.3399 1.04107 14.9961 2.85536 16.8109L2.88571 16.8406C2.98929 16.9426 3.11964 17 3.25357 17H12.7482C12.8821 17 13.0125 16.9426 13.1161 16.8406L13.1464 16.8109C14.9589 14.9961 16 12.3399 16 9.52C16 8.23438 15.7875 6.98913 15.3714 5.814ZM12.4536 15.385H3.54643C2.85642 14.6446 2.30494 13.7399 1.92778 12.7295C1.55062 11.7191 1.3562 10.6256 1.35714 9.52C1.35714 7.40775 2.04821 5.423 3.30357 3.93125C4.55893 2.43738 6.22679 1.615 8 1.615C9.775 1.615 11.4429 2.43738 12.6964 3.93125C13.9518 5.42513 14.6429 7.40987 14.6429 9.52C14.6429 11.764 13.8482 13.8869 12.4536 15.385ZM9.99107 6.57688C9.96422 6.54524 9.92796 6.52749 9.89018 6.52749C9.85239 6.52749 9.81614 6.54524 9.78929 6.57688L8.28036 8.3725C7.94643 8.26625 7.57679 8.36825 7.31429 8.68062C7.22131 8.79106 7.14755 8.92222 7.09722 9.06662C7.04689 9.21101 7.02099 9.3658 7.02099 9.52212C7.02099 9.67845 7.04689 9.83324 7.09722 9.97763C7.14755 10.122 7.22131 10.2532 7.31429 10.3636C7.40709 10.4743 7.51731 10.562 7.63865 10.6219C7.75999 10.6818 7.89007 10.7127 8.02143 10.7127C8.15279 10.7127 8.28287 10.6818 8.40421 10.6219C8.52555 10.562 8.63577 10.4743 8.72857 10.3636C8.85294 10.2161 8.94237 10.0321 8.98784 9.83021C9.0333 9.62835 9.03319 9.41579 8.9875 9.214L10.4964 7.41838C10.5518 7.3525 10.5518 7.24412 10.4964 7.17825L9.99107 6.57688ZM7.60714 4.42H8.39286C8.47143 4.42 8.53572 4.3435 8.53572 4.25V2.55C8.53572 2.4565 8.47143 2.38 8.39286 2.38H7.60714C7.52857 2.38 7.46429 2.4565 7.46429 2.55V4.25C7.46429 4.3435 7.52857 4.42 7.60714 4.42ZM12.25 9.0525V9.9875C12.25 10.081 12.3143 10.1575 12.3929 10.1575H13.8214C13.9 10.1575 13.9643 10.081 13.9643 9.9875V9.0525C13.9643 8.959 13.9 8.8825 13.8214 8.8825H12.3929C12.3143 8.8825 12.25 8.959 12.25 9.0525ZM12.4768 4.862L11.9214 4.20113C11.8946 4.16949 11.8583 4.15174 11.8205 4.15174C11.7828 4.15174 11.7465 4.16949 11.7196 4.20113L10.7089 5.40387C10.6823 5.43583 10.6674 5.47897 10.6674 5.52394C10.6674 5.5689 10.6823 5.61205 10.7089 5.644L11.2643 6.30488C11.3196 6.37075 11.4107 6.37075 11.4661 6.30488L12.4768 5.10213C12.5321 5.03625 12.5321 4.92787 12.4768 4.862ZM4.2875 4.20113C4.26065 4.16949 4.22439 4.15174 4.18661 4.15174C4.14882 4.15174 4.11256 4.16949 4.08571 4.20113L3.53036 4.862C3.50377 4.89395 3.48886 4.9371 3.48886 4.98206C3.48886 5.02703 3.50377 5.07017 3.53036 5.10213L4.54107 6.30488C4.59643 6.37075 4.6875 6.37075 4.74286 6.30488L5.29821 5.644C5.35357 5.57812 5.35357 5.46975 5.29821 5.40387L4.2875 4.20113ZM3.53571 8.8825H2.10714C2.02857 8.8825 1.96429 8.959 1.96429 9.0525V9.9875C1.96429 10.081 2.02857 10.1575 2.10714 10.1575H3.53571C3.61429 10.1575 3.67857 10.081 3.67857 9.9875V9.0525C3.67857 8.959 3.61429 8.8825 3.53571 8.8825Z" fill="white"/>
</svg>
