<svg width="14" height="20" viewBox="0 0 14 20" fill="none" xmlns="http://www.w3.org/2000/svg">
<path fill-rule="evenodd" clip-rule="evenodd" d="M6.36166 5.71811C6.36166 3.51691 4.85808 0.936523 3.18147 0.936523C1.50485 0.936523 0 3.51691 0 5.71811C0 7.62359 1.34975 8.47736 2.77641 8.87085C2.77641 8.87085 3.13404 14.282 1.92529 18.4626C1.67021 19.3546 2.679 19.9603 3.24043 19.9603C3.7929 19.9603 4.79399 19.3689 4.54148 18.4925C3.33529 14.2594 3.62626 8.90543 3.62626 8.90543C4.99267 8.46066 6.36166 7.57231 6.36166 5.71811Z" fill="#C4C4C4" fill-opacity="0.8"/>
<path fill-rule="evenodd" clip-rule="evenodd" d="M11.2787 8.73851C12.6554 8.24605 14 7.97537 14 5.75032C14 4.54598 13.3296 1.76169 12.8387 0.941311V5.69666H11.4966V0.927002L10.2546 0.928194V5.69666H8.89326V0.941311C8.3972 1.77362 7.70117 4.5269 7.70117 5.73482C7.70117 7.93602 9.08553 8.22697 10.4545 8.72182C10.5071 10.2481 10.5789 14.9629 9.5957 18.4174C9.3419 19.3081 10.3366 19.9138 10.8891 19.9138C11.4338 19.9138 12.417 19.3224 12.1696 18.4472C11.2031 15.0118 11.2133 10.3638 11.2505 8.73971H11.2787V8.73851Z" fill="#C4C4C4" fill-opacity="0.8"/>
</svg>
