<svg width="15" height="16" viewBox="0 0 15 16" fill="none" xmlns="http://www.w3.org/2000/svg">
<g opacity="0.7" clip-path="url(#clip0_241_10576)">
<path d="M7.5 14.4851C5.75952 14.4851 4.09032 13.7937 2.85961 12.563C1.6289 11.3323 0.9375 9.66309 0.9375 7.92261C0.9375 6.18212 1.6289 4.51293 2.85961 3.28222C4.09032 2.05151 5.75952 1.36011 7.5 1.36011C9.24048 1.36011 10.9097 2.05151 12.1404 3.28222C13.3711 4.51293 14.0625 6.18212 14.0625 7.92261C14.0625 9.66309 13.3711 11.3323 12.1404 12.563C10.9097 13.7937 9.24048 14.4851 7.5 14.4851ZM7.5 15.4226C9.48912 15.4226 11.3968 14.6324 12.8033 13.2259C14.2098 11.8194 15 9.91173 15 7.92261C15 5.93348 14.2098 4.02583 12.8033 2.61931C11.3968 1.21278 9.48912 0.422607 7.5 0.422607C5.51088 0.422607 3.60322 1.21278 2.1967 2.61931C0.790176 4.02583 0 5.93348 0 7.92261C0 9.91173 0.790176 11.8194 2.1967 13.2259C3.60322 14.6324 5.51088 15.4226 7.5 15.4226Z" fill="#FF7B01" fill-opacity="0.7"/>
<path d="M10.6079 9.81077C10.6968 9.78981 10.79 9.79534 10.8759 9.82667C10.9618 9.858 11.0367 9.91377 11.0913 9.9871C11.1459 10.0604 11.1778 10.1481 11.1832 10.2394C11.1886 10.3307 11.1672 10.4215 11.1216 10.5008C10.7514 11.1423 10.2187 11.6751 9.57722 12.0454C8.9357 12.4157 8.20795 12.6105 7.46723 12.6101C6.72651 12.6105 5.99876 12.4157 5.35724 12.0454C4.71572 11.6751 4.18305 11.1423 3.81286 10.5008C3.76727 10.4215 3.74585 10.3307 3.75125 10.2394C3.75664 10.1481 3.7886 10.0604 3.8432 9.9871C3.8978 9.91377 3.97266 9.858 4.05855 9.82667C4.14444 9.79534 4.23761 9.78981 4.32661 9.81077H4.33129L4.34723 9.81545L4.41004 9.82952L4.64629 9.88108C4.84786 9.9242 5.12911 9.98233 5.44973 10.0395C6.09942 10.1558 6.87661 10.2664 7.46723 10.2664C8.05786 10.2664 8.83598 10.1558 9.48473 10.0395C9.83274 9.9769 10.1794 9.90689 10.5244 9.82952L10.5872 9.81545L10.6032 9.8117L10.6079 9.80983V9.81077ZM4.45879 4.70326C5.17411 3.36826 8.22754 4.59076 5.35129 7.92264C1.1363 6.42639 3.14817 3.89326 4.45879 4.70326ZM10.5413 4.70326C11.8519 3.89326 13.8638 6.42639 9.64879 7.92264C6.77348 4.59076 9.82692 3.36826 10.5413 4.70326Z" fill="#FF7B01" fill-opacity="0.7"/>
</g>
<defs>
<clipPath id="clip0_241_10576">
<rect width="15" height="15" fill="white" transform="translate(0 0.422607)"/>
</clipPath>
</defs>
</svg>
