<svg width="16" height="15" viewBox="0 0 16 15" fill="none" xmlns="http://www.w3.org/2000/svg">
<g opacity="0.7">
<path d="M0.21875 7.96875C0.21875 7.78408 0.256151 7.60121 0.328816 7.4306C0.401481 7.25999 0.507989 7.10496 0.642257 6.97438C0.776525 6.8438 0.935925 6.74021 1.11136 6.66954C1.28679 6.59887 1.47481 6.5625 1.66469 6.5625C1.85458 6.5625 2.0426 6.59887 2.21803 6.66954C2.39346 6.74021 2.55286 6.8438 2.68713 6.97438C2.8214 7.10496 2.92791 7.25999 3.00057 7.4306C3.07324 7.60121 3.11064 7.78408 3.11064 7.96875V13.5937C3.11064 13.9667 2.9583 14.3244 2.68713 14.5881C2.41596 14.8518 2.04818 15 1.66469 15C1.28121 15 0.913424 14.8518 0.642257 14.5881C0.37109 14.3244 0.21875 13.9667 0.21875 13.5937V7.96875Z" fill="#FF7B01" fill-opacity="0.7"/>
<path d="M4.07617 7.81218V12.9028C4.07601 13.2512 4.17567 13.5928 4.36399 13.8892C4.55231 14.1857 4.82183 14.4252 5.14231 14.5809L5.19051 14.6044C5.7254 14.8644 6.31514 14.9998 6.91311 15H12.1339C12.5798 15.0002 13.0119 14.85 13.3568 14.5752C13.7016 14.3003 13.9378 13.9177 14.0252 13.4925L15.182 7.8675C15.2379 7.5955 15.231 7.31483 15.1619 7.04572C15.0928 6.77661 14.9632 6.52576 14.7824 6.31126C14.6016 6.09675 14.3741 5.92394 14.1163 5.80527C13.8585 5.68659 13.5769 5.62503 13.2917 5.625H9.85995V1.875C9.85995 1.37772 9.65682 0.900805 9.29527 0.549174C8.93371 0.197544 8.44334 0 7.93202 0C7.67636 0 7.43117 0.0987719 7.2504 0.274587C7.06962 0.450402 6.96806 0.688859 6.96806 0.937499V1.56281C6.96806 2.3742 6.69746 3.1637 6.19689 3.81281L4.84734 5.56218C4.34677 6.21129 4.07617 7.0008 4.07617 7.81218Z" fill="#FF7B01" fill-opacity="0.7"/>
</g>
</svg>
