<svg width="11" height="11" viewBox="0 0 11 11" fill="none" xmlns="http://www.w3.org/2000/svg">
<path d="M3.61195 10.8718C7.3857 10.8718 9.45008 7.02357 9.45008 3.69221C9.45008 3.58452 9.45008 3.4753 9.44633 3.36761C9.84824 3.00954 10.1951 2.56623 10.4707 2.05845C10.0953 2.26217 9.69743 2.39644 9.29008 2.45689C9.71916 2.14124 10.0405 1.6446 10.1945 1.05927C9.79132 1.3532 9.35009 1.55953 8.89008 1.66924C8.58082 1.2639 8.17158 0.995366 7.72576 0.905248C7.27993 0.815129 6.8224 0.908451 6.42404 1.17076C6.02568 1.43306 5.70871 1.84971 5.52223 2.35617C5.33576 2.86263 5.29019 3.43063 5.39258 3.97219C4.57679 3.92185 3.77871 3.66103 3.0501 3.20665C2.3215 2.75227 1.67863 2.11448 1.1632 1.33464C0.901541 1.89083 0.821687 2.54873 0.939857 3.17475C1.05803 3.80077 1.36536 4.34797 1.79945 4.70523C1.47417 4.69163 1.15603 4.58413 0.870703 4.3914V4.42602C0.871264 5.00866 1.03527 5.5732 1.335 6.02421C1.63473 6.47521 2.0518 6.78502 2.5157 6.90127C2.33962 6.96097 2.15772 6.99073 1.97508 6.98973C1.84632 6.99021 1.71782 6.97552 1.59133 6.94588C1.72244 7.44744 1.97775 7.88596 2.32148 8.20003C2.66522 8.5141 3.08016 8.68798 3.5082 8.69733C2.78105 9.40021 1.88283 9.78143 0.958203 9.77958C0.795279 9.78042 0.632468 9.76886 0.470703 9.74496C1.40915 10.4813 2.49901 10.8722 3.61195 10.8718Z" fill="white"/>
</svg>
