<svg width="15" height="15" viewBox="0 0 15 15" fill="none" xmlns="http://www.w3.org/2000/svg">
<path d="M7.18502 7.4966C8.12771 7.4966 9.03179 7.12212 9.69837 6.45553C10.365 5.78895 10.7394 4.88487 10.7394 3.94218C10.7394 2.99949 10.365 2.09541 9.69837 1.42882C9.03179 0.762239 8.12771 0.387756 7.18502 0.387756C6.24232 0.387756 5.33824 0.762239 4.67166 1.42882C4.00508 2.09541 3.63059 2.99949 3.63059 3.94218C3.63059 4.88487 4.00508 5.78895 4.67166 6.45553C5.33824 7.12212 6.24232 7.4966 7.18502 7.4966ZM9.55463 3.94218C9.55463 4.57064 9.30497 5.17336 8.86059 5.61775C8.4162 6.06214 7.81348 6.31179 7.18502 6.31179C6.55655 6.31179 5.95383 6.06214 5.50944 5.61775C5.06506 5.17336 4.8154 4.57064 4.8154 3.94218C4.8154 3.31372 5.06506 2.711 5.50944 2.26661C5.95383 1.82222 6.55655 1.57256 7.18502 1.57256C7.81348 1.57256 8.4162 1.82222 8.86059 2.26661C9.30497 2.711 9.55463 3.31372 9.55463 3.94218ZM14.2939 13.4206C14.2939 14.6054 13.1091 14.6054 13.1091 14.6054H1.26098C1.26098 14.6054 0.0761719 14.6054 0.0761719 13.4206C0.0761719 12.2358 1.26098 8.68141 7.18502 8.68141C13.1091 8.68141 14.2939 12.2358 14.2939 13.4206ZM13.1091 13.4159C13.1079 13.1244 12.9266 12.2477 12.1233 11.4444C11.3508 10.6719 9.89704 9.86621 7.18502 9.86621C4.47181 9.86621 3.01923 10.6719 2.24674 11.4444C1.44344 12.2477 1.26335 13.1244 1.26098 13.4159H13.1091Z" fill="#282B30"/>
</svg>
