<svg width="13" height="13" viewBox="0 0 13 13" fill="none" xmlns="http://www.w3.org/2000/svg">
<path d="M4.98699 6.70106C4.98699 7.04181 5.12235 7.36861 5.3633 7.60955C5.60425 7.8505 5.93104 7.98586 6.27179 7.98586C6.61255 7.98586 6.93934 7.8505 7.18029 7.60955C7.42124 7.36861 7.5566 7.04181 7.5566 6.70106C7.5566 6.36031 7.42124 6.03352 7.18029 5.79257C6.93934 5.55162 6.61255 5.41626 6.27179 5.41626C5.93104 5.41626 5.60425 5.55162 5.3633 5.79257C5.12235 6.03352 4.98699 6.36031 4.98699 6.70106V6.70106ZM11.2527 6.4051C10.1652 4.11425 8.52135 2.96136 6.31768 2.96136C4.11286 2.96136 2.47015 4.11425 1.38265 6.40624C1.33903 6.49861 1.31641 6.59949 1.31641 6.70163C1.31641 6.80378 1.33903 6.90466 1.38265 6.99702C2.47015 9.28788 4.11401 10.4408 6.31768 10.4408C8.5225 10.4408 10.1652 9.28788 11.2527 6.99588C11.341 6.81004 11.341 6.59438 11.2527 6.4051V6.4051ZM6.27179 8.72004C5.15677 8.72004 4.25281 7.81609 4.25281 6.70106C4.25281 5.58604 5.15677 4.68208 6.27179 4.68208C7.38682 4.68208 8.29078 5.58604 8.29078 6.70106C8.29078 7.81609 7.38682 8.72004 6.27179 8.72004Z" fill="#FF7B01" fill-opacity="0.7"/>
</svg>
