<svg width="17" height="17" viewBox="0 0 17 17" fill="none" xmlns="http://www.w3.org/2000/svg">
<path d="M15.7226 7.38786C16.0925 8.05214 16.0925 8.94893 15.7226 9.61214C14.5578 11.7004 11.763 16 8.50012 16C5.23723 16 2.44248 11.7004 1.27761 9.61214C1.09767 9.29407 1 8.90277 1 8.5C1 8.09723 1.09767 7.70593 1.27761 7.38786C2.44248 5.29964 5.23723 1 8.50012 1C11.763 1 14.5578 5.29964 15.7226 7.38786V7.38786Z" stroke="white" stroke-linecap="round" stroke-linejoin="round"/>
<path d="M8.50082 11.7143C9.79354 11.7143 10.8415 10.2752 10.8415 8.49999C10.8415 6.72479 9.79354 5.28571 8.50082 5.28571C7.20811 5.28571 6.16016 6.72479 6.16016 8.49999C6.16016 10.2752 7.20811 11.7143 8.50082 11.7143Z" stroke="white" stroke-linecap="round" stroke-linejoin="round"/>
</svg>
