<svg width="9" height="8" viewBox="0 0 9 8" fill="none" xmlns="http://www.w3.org/2000/svg">
<path d="M7.70401 3.54795C7.87796 3.8604 7.87796 4.28219 7.70401 4.59413C7.15612 5.57631 5.84162 7.59863 4.30694 7.59863C2.77226 7.59863 1.45776 5.57631 0.909867 4.59413C0.825237 4.44453 0.779297 4.26048 0.779297 4.07104C0.779297 3.8816 0.825237 3.69756 0.909867 3.54795C1.45776 2.56577 2.77226 0.543457 4.30694 0.543457C5.84162 0.543457 7.15612 2.56577 7.70401 3.54795V3.54795Z" stroke="white" stroke-width="0.470345" stroke-linecap="round" stroke-linejoin="round"/>
<path d="M4.30795 5.58286C4.91597 5.58286 5.40887 4.906 5.40887 4.07104C5.40887 3.23609 4.91597 2.55922 4.30795 2.55922C3.69993 2.55922 3.20703 3.23609 3.20703 4.07104C3.20703 4.906 3.69993 5.58286 4.30795 5.58286Z" stroke="white" stroke-width="0.470345" stroke-linecap="round" stroke-linejoin="round"/>
</svg>
